HIERARCHY
ROOT joint_0
{
	OFFSET 0.000000 0.000000 0.000000
	CHANNELS 6 Xposition Yposition Zposition Zrotation Yrotation Xrotation 
	JOINT joint_1
	{
		OFFSET 6.590088 -1.122192 114.019043
		CHANNELS 3 Zrotation Yrotation Xrotation
		JOINT joint_2
		{
			OFFSET -5.956055 -0.820435 104.151001
			CHANNELS 3 Zrotation Yrotation Xrotation
			JOINT joint_3
			{
				OFFSET -7.343506 -1.103027 103.942993
				CHANNELS 3 Zrotation Yrotation Xrotation
				JOINT joint_4
				{
					OFFSET 3.109131 -2.857056 147.715942
					CHANNELS 3 Zrotation Yrotation Xrotation
					JOINT joint_5
					{
						OFFSET 28.592285 -2.852295 87.703979
						CHANNELS 3 Zrotation Yrotation Xrotation
						End Site
						{
							OFFSET 0.000000 0.000000 0.000000
						}
					}
				}
				JOINT joint_6
				{
					OFFSET -0.332520 -33.687378 82.401978
					CHANNELS 3 Zrotation Yrotation Xrotation
					JOINT joint_7
					{
						OFFSET -7.397461 -168.719177 -22.750977
						CHANNELS 3 Zrotation Yrotation Xrotation
						JOINT joint_8
						{
							OFFSET 17.065918 -24.903137 -272.721069
							CHANNELS 3 Zrotation Yrotation Xrotation
							JOINT joint_9
							{
								OFFSET 33.311279 -37.031616 -278.192993
								CHANNELS 3 Zrotation Yrotation Xrotation
								End Site
								{
									OFFSET 0.000000 0.000000 0.000000
								}
							}
						}
					}
				}
				JOINT joint_10
				{
					OFFSET 3.914307 30.461670 83.552979
					CHANNELS 3 Zrotation Yrotation Xrotation
					JOINT joint_11
					{
						OFFSET 15.543701 166.845459 -30.963013
						CHANNELS 3 Zrotation Yrotation Xrotation
						JOINT joint_12
						{
							OFFSET 35.734863 35.017700 -269.786011
							CHANNELS 3 Zrotation Yrotation Xrotation
							JOINT joint_13
							{
								OFFSET 70.506592 13.977783 -273.320007
								CHANNELS 3 Zrotation Yrotation Xrotation
								End Site
								{
									OFFSET 0.000000 0.000000 0.000000
								}
							}
						}
					}
				}
			}
		}
	}
	JOINT joint_14
	{
		OFFSET -0.314697 -95.093994 -116.004028
		CHANNELS 3 Zrotation Yrotation Xrotation
		JOINT joint_15
		{
			OFFSET -22.490723 2.017883 -455.510986
			CHANNELS 3 Zrotation Yrotation Xrotation
			JOINT joint_16
			{
				OFFSET -46.427490 7.144104 -496.360985
				CHANNELS 3 Zrotation Yrotation Xrotation
				JOINT joint_17
				{
					OFFSET 209.055420 -37.122803 -85.191002
					CHANNELS 3 Zrotation Yrotation Xrotation
					End Site
					{
						OFFSET 0.000000 0.000000 0.000000
					}
				}
			}
		}
	}
	JOINT joint_18
	{
		OFFSET 5.652832 94.642578 -116.244019
		CHANNELS 3 Zrotation Yrotation Xrotation
		JOINT joint_19
		{
			OFFSET -12.379883 -7.332642 -455.843994
			CHANNELS 3 Zrotation Yrotation Xrotation
			JOINT joint_20
			{
				OFFSET -45.227051 -8.172241 -496.457985
				CHANNELS 3 Zrotation Yrotation Xrotation
				JOINT joint_21
				{
					OFFSET 210.522949 -11.530396 -88.809004
					CHANNELS 3 Zrotation Yrotation Xrotation
					End Site
					{
						OFFSET 0.000000 0.000000 0.000000
					}
				}
			}
		}
	}
}
MOTION
Frames: 18
Frame Time: 0.016667
-3107.125488 932.586914 1184.166016 -3.660523 -3.085101 -0.170318 -0.029910 1.538950 0.101889 -0.049890 -0.299156 -0.023552 -0.038182 0.363178 0.035918 -0.243148 -5.432736 0.342480 0.000000 0.000000 0.000000 1.329722 1.647485 1.865045 -0.031670 1.882055 0.748677 -0.019648 3.553793 3.699511 0.000000 0.000000 0.000000 3.112385 3.051635 2.940113 -0.764687 3.176002 -5.877274 0.805145 7.507513 1.518542 0.000000 0.000000 0.000000 -1.829628 0.708807 2.445395 -1.648269 0.630651 -1.424733 -1.735931 1.120330 -0.507967 0.000000 0.000000 0.000000 2.147266 -0.444485 0.127944 2.056038 3.452942 1.138224 2.171621 -1.684408 0.821111 0.000000 0.000000 0.000000 
-3106.458008 932.426941 1184.076050 -3.645287 -3.214285 -0.165966 -0.042021 1.665497 0.089210 -0.062087 -0.314212 -0.020972 -0.050140 0.383624 0.035956 -0.244321 -5.446926 0.345898 0.000000 0.000000 0.000000 1.370287 1.637427 1.868433 -0.029474 1.875241 0.795670 -0.022001 3.555058 3.682822 0.000000 0.000000 0.000000 3.097483 3.032482 2.942500 -0.769222 3.163769 -5.929380 0.811550 7.512407 1.540180 0.000000 0.000000 0.000000 -1.831849 0.870217 2.453659 -1.649817 0.671946 -1.447088 -1.740219 1.070497 -0.518563 0.000000 0.000000 0.000000 2.139401 -0.281670 0.128626 2.050261 3.488704 1.150542 2.168842 -1.739485 0.816913 0.000000 0.000000 0.000000 
-3105.714111 932.275269 1183.977051 -3.632728 -3.328469 -0.165522 -0.053159 1.772482 0.082530 -0.073631 -0.328581 -0.020548 -0.061239 0.402298 0.037112 -0.245333 -5.458959 0.348991 0.000000 0.000000 0.000000 1.406154 1.634064 1.863461 -0.027034 1.874034 0.844176 -0.023165 3.554689 3.673719 0.000000 0.000000 0.000000 3.092068 3.018657 2.949492 -0.774558 3.155787 -5.985178 0.816448 7.516315 1.556676 0.000000 0.000000 0.000000 -1.833370 1.022114 2.464764 -1.650691 0.707978 -1.467298 -1.743562 1.020349 -0.528832 0.000000 0.000000 0.000000 2.132408 -0.127857 0.129991 2.045182 3.518525 1.167574 2.167093 -1.796269 0.813061 0.000000 0.000000 0.000000 
-3104.910400 932.144043 1183.869995 -3.626091 -3.419920 -0.170889 -0.063404 1.849583 0.083624 -0.084481 -0.343448 -0.019465 -0.071733 0.420026 0.037811 -0.245690 -5.459748 0.350815 0.000000 0.000000 0.000000 1.431971 1.634753 1.849300 -0.024299 1.875133 0.891414 -0.023538 3.558223 3.674339 0.000000 0.000000 0.000000 3.101977 3.010980 2.961998 -0.781402 3.151926 -6.046630 0.818978 7.519093 1.564884 0.000000 0.000000 0.000000 -1.834015 1.154901 2.480400 -1.650625 0.738936 -1.484445 -1.745610 0.968069 -0.538956 0.000000 0.000000 0.000000 2.128877 0.009034 0.130580 2.043133 3.540713 1.192908 2.169003 -1.858589 0.810450 0.000000 0.000000 0.000000 
-3104.029541 932.021179 1183.754028 -3.622133 -3.496341 -0.180124 -0.071976 1.907123 0.090745 -0.093985 -0.358816 -0.020444 -0.080676 0.437837 0.039248 -0.245881 -5.459904 0.352160 0.000000 0.000000 0.000000 1.450688 1.642018 1.827539 -0.021296 1.881447 0.939620 -0.022641 3.559558 3.682604 0.000000 0.000000 0.000000 3.118963 3.008037 2.979460 -0.789088 3.152180 -6.111764 0.819988 7.521224 1.567806 0.000000 0.000000 0.000000 -1.834107 1.278394 2.498923 -1.650009 0.764330 -1.499567 -1.746832 0.915187 -0.548854 0.000000 0.000000 0.000000 2.126243 0.137091 0.131582 2.041792 3.556613 1.223295 2.171965 -1.922001 0.808227 0.000000 0.000000 0.000000 
-3102.964844 931.870605 1183.630981 -3.618251 -3.547528 -0.190145 -0.077284 1.939163 0.096251 -0.099869 -0.368925 -0.020352 -0.086271 0.449554 0.039787 -0.246770 -5.476443 0.354638 0.000000 0.000000 0.000000 1.472367 1.669904 1.800277 -0.018367 1.908334 0.994267 -0.018781 3.544729 3.698646 0.000000 0.000000 0.000000 3.140028 3.014696 3.002475 -0.796260 3.161855 -6.175300 0.819214 7.518719 1.565631 0.000000 0.000000 0.000000 -1.831847 1.389211 2.518993 -1.646950 0.779260 -1.515407 -1.745590 0.871281 -0.556162 0.000000 0.000000 0.000000 2.120374 0.250785 0.134649 2.037101 3.563421 1.255519 2.171393 -1.971077 0.805315 0.000000 0.000000 0.000000 
-3101.713379 931.676392 1183.489990 -3.616196 -3.574734 -0.201629 -0.075690 1.945590 0.099677 -0.098499 -0.373520 -0.019957 -0.084778 0.454588 0.040269 -0.248316 -5.514029 0.357671 0.000000 0.000000 0.000000 1.496137 1.725239 1.767695 -0.015234 1.962312 1.059266 -0.010141 3.500018 3.723080 0.000000 0.000000 0.000000 3.156217 3.031904 3.033056 -0.802436 3.183952 -6.238658 0.816355 7.506944 1.558279 0.000000 0.000000 0.000000 -1.825886 1.482914 2.543521 -1.639717 0.796607 -1.535246 -1.740739 0.824847 -0.562451 0.000000 0.000000 0.000000 2.109481 0.348200 0.142659 2.027202 3.567812 1.289527 2.165604 -2.007100 0.800933 0.000000 0.000000 0.000000 
-3100.277344 931.455505 1183.340942 -3.614591 -3.576800 -0.214212 -0.069764 1.926857 0.103887 -0.092778 -0.374516 -0.021760 -0.078836 0.455513 0.041250 -0.250698 -5.569389 0.362116 0.000000 0.000000 0.000000 1.519774 1.801193 1.729561 -0.012046 2.036406 1.131037 0.001527 3.438303 3.754773 0.000000 0.000000 0.000000 3.172946 3.058119 3.069352 -0.808105 3.215566 -6.300639 0.811801 7.490970 1.545951 0.000000 0.000000 0.000000 -1.817391 1.564205 2.569992 -1.629825 0.803226 -1.555829 -1.733213 0.787761 -0.565996 0.000000 0.000000 0.000000 2.095540 0.431472 0.152755 2.014127 3.563005 1.325765 2.156487 -2.029082 0.795931 0.000000 0.000000 0.000000 
-3098.553467 931.221069 1183.213989 -3.604300 -3.541846 -0.222402 -0.064931 1.881586 0.102548 -0.087599 -0.370370 -0.022296 -0.073762 0.449313 0.040985 -0.254182 -5.649432 0.368613 0.000000 0.000000 0.000000 1.542186 1.893821 1.685850 -0.009441 2.126905 1.203136 0.013647 3.381843 3.796235 0.000000 0.000000 0.000000 3.199597 3.093700 3.107278 -0.813582 3.254244 -6.353622 0.805999 7.481217 1.528119 0.000000 0.000000 0.000000 -1.809536 1.646616 2.587627 -1.621601 0.754427 -1.569085 -1.725678 0.803574 -0.560170 0.000000 0.000000 0.000000 2.079936 0.504329 0.156486 1.999536 3.523915 1.362743 2.144686 -2.014157 0.791851 0.000000 0.000000 0.000000 
-3096.493652 930.969604 1183.118042 -3.578058 -3.463113 -0.222020 -0.063739 1.794217 0.091387 -0.085225 -0.357156 -0.023508 -0.071629 0.432171 0.041514 -0.259774 -5.747253 0.380467 0.000000 0.000000 0.000000 1.558475 2.003980 1.642254 -0.008348 2.234731 1.267364 0.024353 3.349672 3.852327 0.000000 0.000000 0.000000 3.242037 3.141383 3.137547 -0.818170 3.299727 -6.385252 0.799310 7.486134 1.505016 0.000000 0.000000 0.000000 -1.802982 1.735011 2.590644 -1.616192 0.629661 -1.572583 -1.718727 0.893999 -0.541362 0.000000 0.000000 0.000000 2.061654 0.563875 0.151971 1.982556 3.444002 1.394955 2.128534 -1.949829 0.788680 0.000000 0.000000 0.000000 
-3094.144775 930.703552 1183.042969 -3.543286 -3.346932 -0.217098 -0.063541 1.678922 0.074578 -0.083251 -0.338757 -0.023116 -0.070296 0.409793 0.039792 -0.266788 -5.870843 0.395345 0.000000 0.000000 0.000000 1.572996 2.130442 1.594514 -0.007642 2.358578 1.331382 0.035548 3.322326 3.918161 0.000000 0.000000 0.000000 3.293814 3.198038 3.170687 -0.822640 3.352132 -6.408092 0.791332 7.496662 1.476298 0.000000 0.000000 0.000000 -1.796732 1.824266 2.584926 -1.612122 0.448872 -1.568831 -1.711603 1.038432 -0.512912 0.000000 0.000000 0.000000 2.041594 0.612553 0.141277 1.963936 3.329761 1.427827 2.109566 -1.848135 0.786391 0.000000 0.000000 0.000000 
-3091.542969 930.444275 1182.995972 -3.516545 -3.200110 -0.214004 -0.057305 1.573716 0.061122 -0.075536 -0.318843 -0.021869 -0.063347 0.384604 0.037909 -0.271817 -6.032865 0.402324 0.000000 0.000000 0.000000 1.585439 2.269365 1.525135 -0.005220 2.492743 1.413856 0.049535 3.265067 3.975841 0.000000 0.000000 0.000000 3.331280 3.257290 3.224747 -0.828603 3.413418 -6.447023 0.781090 7.497544 1.439249 0.000000 0.000000 0.000000 -1.789605 1.911924 2.578057 -1.607732 0.227579 -1.560054 -1.703277 1.219623 -0.477455 0.000000 0.000000 0.000000 2.025577 0.662206 0.120433 1.949258 3.173928 1.478401 2.094803 -1.722242 0.787208 0.000000 0.000000 0.000000 
-3088.737061 930.196106 1182.953003 -3.503871 -3.025322 -0.219194 -0.040665 1.494786 0.058762 -0.058086 -0.298928 -0.016638 -0.047217 0.358954 0.032172 -0.273055 -6.240920 0.395545 0.000000 0.000000 0.000000 1.602272 2.420512 1.424156 -0.000063 2.636508 1.532442 0.066325 3.164021 4.011197 0.000000 0.000000 0.000000 3.345709 3.312779 3.313968 -0.837628 3.481948 -6.522493 0.770201 7.484340 1.400364 0.000000 0.000000 0.000000 -1.782502 1.999665 2.576501 -1.603782 -0.037545 -1.544055 -1.694353 1.441383 -0.434559 0.000000 0.000000 0.000000 2.019119 0.703413 0.092378 1.943451 2.997166 1.553064 2.090276 -1.589901 0.792678 0.000000 0.000000 0.000000 
-3085.679199 929.955750 1182.937012 -3.499257 -2.819675 -0.226429 -0.018990 1.425396 0.060121 -0.035830 -0.276181 -0.009510 -0.026630 0.329884 0.024451 -0.272041 -6.488542 0.380250 0.000000 0.000000 0.000000 1.619290 2.583962 1.303774 0.007191 2.790805 1.667828 0.086141 3.032192 4.038557 0.000000 0.000000 0.000000 3.350455 3.371178 3.424186 -0.848277 3.558902 -6.613777 0.757115 7.460962 1.353504 0.000000 0.000000 0.000000 -1.774622 2.085525 2.573546 -1.599676 -0.343574 -1.522417 -1.684591 1.701852 -0.384449 0.000000 0.000000 0.000000 2.016589 0.745284 0.054184 1.941458 2.778507 1.645431 2.089793 -1.431624 0.801271 0.000000 0.000000 0.000000 
-3082.260010 929.730103 1183.025024 -3.502409 -2.580433 -0.224135 -0.000494 1.353512 0.050752 -0.016241 -0.253173 -0.002641 -0.008626 0.301197 0.017731 -0.272195 -6.769259 0.368025 0.000000 0.000000 0.000000 1.622054 2.753065 1.182613 0.016297 2.949515 1.782392 0.111255 2.878612 4.083466 0.000000 0.000000 0.000000 3.357279 3.444412 3.534296 -0.858280 3.648835 -6.682437 0.734306 7.421840 1.270596 0.000000 0.000000 0.000000 -1.761935 2.160209 2.557748 -1.591418 -0.665130 -1.501545 -1.671167 1.974832 -0.330621 0.000000 0.000000 0.000000 2.006394 0.826303 -0.004539 1.933222 2.448703 1.751848 2.081255 -1.203382 0.810325 0.000000 0.000000 0.000000 
-3078.503906 929.520447 1183.230957 -3.506257 -2.308019 -0.210739 0.010099 1.283801 0.027801 -0.003956 -0.229452 0.003310 0.002198 0.271102 0.012273 -0.275012 -7.079253 0.364113 0.000000 0.000000 0.000000 1.611828 2.927251 1.070473 0.027783 3.113349 1.859741 0.144439 2.698495 4.162436 0.000000 0.000000 0.000000 3.371051 3.529858 3.630186 -0.867701 3.746012 -6.718905 0.703516 7.379306 1.156102 0.000000 0.000000 0.000000 -1.744111 2.222297 2.531714 -1.578045 -1.002209 -1.491545 -1.654232 2.267730 -0.271809 0.000000 0.000000 0.000000 1.980509 0.987553 -0.092108 1.912138 1.924541 1.882364 2.056867 -0.855500 0.819273 0.000000 0.000000 0.000000 
-3074.386475 929.326538 1183.541992 -3.516916 -2.000701 -0.190664 0.016990 1.208840 -0.000745 0.004988 -0.203270 0.007910 0.009724 0.240343 0.006404 -0.278640 -7.423089 0.362955 0.000000 0.000000 0.000000 1.588464 3.107547 0.959907 0.041558 3.282425 1.912950 0.183271 2.494797 4.258966 0.000000 0.000000 0.000000 3.388712 3.630686 3.724240 -0.876765 3.856111 -6.731055 0.662913 7.320485 1.006098 0.000000 0.000000 0.000000 -1.721923 2.271813 2.495989 -1.560618 -1.355260 -1.482961 -1.633939 2.576821 -0.208733 0.000000 0.000000 0.000000 1.945955 1.186346 -0.197332 1.883699 1.288126 2.027760 2.023346 -0.429294 0.828630 0.000000 0.000000 0.000000 
-3069.736816 929.149902 1183.991943 -3.554596 -1.655597 -0.158953 0.022735 1.107128 -0.039138 0.013756 -0.176179 0.011762 0.017164 0.209342 0.000945 -0.281379 -7.793669 0.361031 0.000000 0.000000 0.000000 1.546887 3.290057 0.844561 0.055931 3.451793 1.947387 0.221813 2.289565 4.348075 0.000000 0.000000 0.000000 3.418934 3.769444 3.834986 -0.883771 4.001153 -6.707472 0.600289 7.203520 0.782856 0.000000 0.000000 0.000000 -1.691741 2.303539 2.433081 -1.537113 -1.697996 -1.453209 -1.606309 2.855050 -0.148118 0.000000 0.000000 0.000000 1.915441 1.338099 -0.304284 1.857799 0.718487 2.155119 1.992136 -0.020756 0.837928 0.000000 0.000000 0.000000 
